<svg width="224" height="40" viewBox="0 0 224 40" fill="none" xmlns="http://www.w3.org/2000/svg">
<path d="M69.5474 7.11719L65.2407 32H60.353L64.6426 7.11719H69.5474ZM75.2896 17.6958L74.5547 21.8315H65.7363L66.4712 17.6958H75.2896ZM78.041 7.11719L77.3062 11.27H67.582L68.2998 7.11719H78.041ZM85.5093 11.7998L76.8789 32H71.5811L83.4414 7.11719H86.7739L85.5093 11.7998ZM86.1416 32L84.4326 11.3896L84.7061 7.11719H87.8677L91.166 32H86.1416ZM87.9019 22.7202L87.167 26.873H76.2295L76.9644 22.7202H87.9019ZM104.906 25.3179C104.975 24.8052 104.958 24.3608 104.855 23.9849C104.764 23.6089 104.593 23.2785 104.342 22.9937C104.103 22.6974 103.807 22.4354 103.454 22.2075C103.1 21.9683 102.702 21.7461 102.257 21.541C101.437 21.1423 100.674 20.7036 99.9673 20.2251C99.2609 19.7466 98.6343 19.2054 98.0874 18.6016C97.5519 17.9977 97.1475 17.3084 96.874 16.5337C96.6006 15.7476 96.498 14.8646 96.5664 13.8848C96.6462 12.7682 96.931 11.7656 97.4209 10.877C97.9108 9.98828 98.5488 9.23633 99.335 8.62109C100.121 7.99447 101.004 7.52734 101.984 7.21973C102.964 6.90072 103.989 6.7526 105.06 6.77539C106.553 6.80957 107.806 7.17415 108.82 7.86914C109.834 8.55273 110.586 9.46989 111.076 10.6206C111.577 11.7599 111.805 13.0417 111.759 14.4658L106.889 14.4487C106.923 13.9019 106.889 13.3493 106.786 12.791C106.695 12.2327 106.479 11.777 106.137 11.4238C105.806 11.0592 105.299 10.8713 104.616 10.8599C104.012 10.8599 103.482 10.9966 103.026 11.27C102.571 11.5321 102.2 11.891 101.916 12.3467C101.631 12.8024 101.448 13.3151 101.369 13.8848C101.312 14.3291 101.357 14.7279 101.505 15.0811C101.665 15.4342 101.881 15.7533 102.155 16.0381C102.44 16.3115 102.759 16.5622 103.112 16.79C103.465 17.0179 103.818 17.2059 104.171 17.354C105.026 17.7869 105.812 18.2427 106.53 18.7212C107.259 19.1997 107.874 19.7523 108.375 20.3789C108.888 20.9941 109.258 21.7062 109.486 22.5151C109.726 23.3241 109.811 24.2469 109.743 25.2837C109.652 26.4344 109.372 27.4484 108.905 28.3257C108.45 29.203 107.846 29.9492 107.094 30.5645C106.342 31.1683 105.482 31.624 104.513 31.9316C103.545 32.2393 102.508 32.3817 101.403 32.3589C100.218 32.3247 99.1584 32.1025 98.2241 31.6924C97.2899 31.2708 96.5037 30.6955 95.8657 29.9663C95.2391 29.2257 94.772 28.3599 94.4644 27.3687C94.1567 26.366 94.0371 25.2894 94.1055 24.1387L98.9761 24.1558C98.9419 24.6912 98.9476 25.2096 98.9932 25.7109C99.0387 26.2122 99.1641 26.6509 99.3691 27.0269C99.5742 27.4028 99.8704 27.7048 100.258 27.9326C100.645 28.1605 101.158 28.2744 101.796 28.2744C102.4 28.2744 102.918 28.1491 103.351 27.8984C103.784 27.6364 104.132 27.2832 104.394 26.8389C104.656 26.3945 104.826 25.8875 104.906 25.3179ZM125.79 7.11719L121.466 32H116.596L120.919 7.11719H125.79ZM131.771 7.11719L131.054 11.27H114.323L115.041 7.11719H131.771Z" fill="white"/>
<path d="M145.067 24.2412L146.93 24.2241C146.645 25.785 146.15 27.1921 145.443 28.4453C144.737 29.6872 143.791 30.6613 142.606 31.3677C141.433 32.0741 139.992 32.4045 138.283 32.3589C136.904 32.3133 135.788 31.9772 134.933 31.3506C134.079 30.7126 133.435 29.8866 133.002 28.8726C132.58 27.8472 132.318 26.7477 132.216 25.5742C132.125 24.4007 132.153 23.2557 132.301 22.1392L133.173 16.8071C133.355 15.5653 133.674 14.3405 134.13 13.1328C134.586 11.9137 135.184 10.8257 135.924 9.86865C136.665 8.90023 137.571 8.13118 138.642 7.56152C139.724 6.98047 140.977 6.71273 142.401 6.7583C144.019 6.80387 145.284 7.20264 146.195 7.95459C147.118 8.69515 147.762 9.68066 148.126 10.9111C148.502 12.1302 148.656 13.4632 148.588 14.9102H146.657C146.691 13.8278 146.605 12.8138 146.4 11.8682C146.195 10.9111 145.774 10.1364 145.136 9.54395C144.498 8.9401 143.552 8.6154 142.299 8.56982C141.148 8.54704 140.151 8.7749 139.308 9.25342C138.476 9.72054 137.776 10.3586 137.206 11.1675C136.636 11.9764 136.181 12.8708 135.839 13.8506C135.497 14.819 135.252 15.7931 135.104 16.7729L134.284 22.1392C134.158 22.9823 134.101 23.8766 134.113 24.8223C134.136 25.7679 134.278 26.668 134.54 27.5225C134.802 28.377 135.235 29.0833 135.839 29.6416C136.454 30.1999 137.314 30.4961 138.419 30.5303C139.798 30.5872 140.92 30.348 141.786 29.8125C142.663 29.2656 143.353 28.508 143.854 27.5396C144.367 26.5711 144.771 25.4717 145.067 24.2412ZM162.567 30.1714L162.243 32H151.75L152.074 30.1714H162.567ZM156.654 7.11719L152.331 32H150.348L154.672 7.11719H156.654ZM182.562 16.8755L181.708 22.2246C181.514 23.512 181.19 24.7653 180.734 25.9844C180.278 27.2035 179.669 28.3029 178.905 29.2827C178.153 30.2511 177.23 31.0145 176.137 31.5728C175.054 32.131 173.778 32.3931 172.309 32.3589C170.919 32.3133 169.779 31.9886 168.891 31.3848C168.013 30.7809 167.341 29.9891 166.874 29.0093C166.418 28.0181 166.128 26.9357 166.002 25.7622C165.889 24.5887 165.906 23.4209 166.054 22.2588L166.908 16.8584C167.102 15.6051 167.427 14.369 167.882 13.1499C168.349 11.9194 168.959 10.82 169.711 9.85156C170.474 8.88314 171.397 8.11979 172.479 7.56152C173.562 6.99186 174.832 6.72982 176.291 6.77539C177.703 6.80957 178.854 7.12858 179.743 7.73242C180.631 8.33626 181.304 9.12809 181.759 10.1079C182.226 11.0763 182.517 12.153 182.631 13.3379C182.745 14.5114 182.722 15.6906 182.562 16.8755ZM179.777 22.2588L180.631 16.79C180.734 15.9128 180.768 15.0013 180.734 14.0557C180.711 13.11 180.552 12.2384 180.255 11.4409C179.971 10.6434 179.498 9.98828 178.837 9.47559C178.188 8.96289 177.305 8.68376 176.188 8.63818C175.003 8.604 173.983 8.82048 173.129 9.2876C172.274 9.75472 171.557 10.387 170.976 11.1846C170.395 11.9821 169.933 12.8765 169.591 13.8677C169.25 14.8475 169.005 15.8387 168.856 16.8413L168.019 22.2588C167.894 23.1589 167.854 24.076 167.899 25.0103C167.945 25.9445 168.11 26.8218 168.395 27.6421C168.68 28.451 169.147 29.1175 169.796 29.6416C170.457 30.1657 171.34 30.4448 172.445 30.479C173.653 30.5132 174.678 30.3024 175.521 29.8467C176.376 29.3796 177.094 28.7472 177.675 27.9497C178.256 27.1408 178.712 26.2464 179.042 25.2666C179.384 24.2754 179.629 23.2728 179.777 22.2588ZM198.969 24.2412L200.832 24.2241C200.547 25.785 200.051 27.1921 199.345 28.4453C198.638 29.6872 197.693 30.6613 196.508 31.3677C195.334 32.0741 193.893 32.4045 192.184 32.3589C190.806 32.3133 189.689 31.9772 188.834 31.3506C187.98 30.7126 187.336 29.8866 186.903 28.8726C186.482 27.8472 186.22 26.7477 186.117 25.5742C186.026 24.4007 186.055 23.2557 186.203 22.1392L187.074 16.8071C187.257 15.5653 187.576 14.3405 188.031 13.1328C188.487 11.9137 189.085 10.8257 189.826 9.86865C190.566 8.90023 191.472 8.13118 192.543 7.56152C193.625 6.98047 194.879 6.71273 196.303 6.7583C197.921 6.80387 199.185 7.20264 200.097 7.95459C201.02 8.69515 201.663 9.68066 202.028 10.9111C202.404 12.1302 202.558 13.4632 202.489 14.9102H200.558C200.592 13.8278 200.507 12.8138 200.302 11.8682C200.097 10.9111 199.675 10.1364 199.037 9.54395C198.399 8.9401 197.453 8.6154 196.2 8.56982C195.049 8.54704 194.053 8.7749 193.209 9.25342C192.378 9.72054 191.677 10.3586 191.107 11.1675C190.538 11.9764 190.082 12.8708 189.74 13.8506C189.398 14.819 189.153 15.7931 189.005 16.7729L188.185 22.1392C188.06 22.9823 188.003 23.8766 188.014 24.8223C188.037 25.7679 188.179 26.668 188.441 27.5225C188.703 28.377 189.136 29.0833 189.74 29.6416C190.355 30.1999 191.216 30.4961 192.321 30.5303C193.699 30.5872 194.822 30.348 195.688 29.8125C196.565 29.2656 197.254 28.508 197.755 27.5396C198.268 26.5711 198.673 25.4717 198.969 24.2412ZM210.539 7.11719L206.215 32H204.25L208.573 7.11719H210.539ZM223.083 7.1001L212.401 18.5332L206.881 23.9849L207.138 21.353L211.308 16.978L220.519 7.11719L223.083 7.1001ZM217.101 32L210.88 19.1313L212.282 17.4736L219.271 32H217.101Z" fill="#FF721D"/>
<path d="M36.6926 3.41894C32.3796 3.41894 33.9867 4.76149 26.5484 2.14436C19.2712 -0.416183 16.3408 1.87493 15.4977 3.6267C17.1494 3.08784 18.8794 3.85477 20.7375 6.34735C21.7737 7.73706 24.3248 8.54558 23.6166 9.29171C23.0132 9.9278 21.6295 8.87935 20.3491 8.34339C14.5542 5.91757 11.0504 10.3648 11.0504 10.3648C14.6679 10.8471 16.2235 12.2407 16.8898 13.2865C17.1895 13.7566 16.7805 14.3487 16.2284 14.2718C13.2233 13.8531 11.4689 16.0032 7.14228 18.0465C2.29087 20.3376 0 16.9373 0 16.9373C1.21267 19.6016 2.29087 22.8979 11.0507 22.0893C15.4305 21.6849 17.0142 22.224 17.5025 22.8642C17.9226 23.4147 17.3854 24.1695 16.7024 24.0561C13.9363 23.5966 11.8592 26.955 11.8592 26.955C14.9589 25.8768 16.5167 30.6936 22.5058 34.6226C28.3006 38.4241 34.5103 38.4241 36.6928 38.4241C46.3591 38.4241 54.1953 30.5879 54.1953 20.9216C54.1951 11.2551 46.3589 3.41894 36.6926 3.41894Z" fill="#FF8D36"/>
<path d="M40.1132 35.8093C48.335 33.9224 53.4704 25.7276 51.5834 17.5059C49.6965 9.28408 41.5017 4.14869 33.2799 6.03564C25.0581 7.92259 19.9227 16.1173 21.8097 24.3391C23.6966 32.5609 31.8914 37.6963 40.1132 35.8093Z" fill="#FF5A0D"/>
<path d="M36.6917 33.2975C43.5269 33.2975 49.0678 27.7566 49.0678 20.9215C49.0678 14.0864 43.5269 8.54541 36.6917 8.54541C29.8566 8.54541 24.3157 14.0864 24.3157 20.9215C24.3157 27.7566 29.8566 33.2975 36.6917 33.2975Z" fill="white"/>
<path d="M44.8834 27.956C42.9053 30.2606 39.9701 31.7212 36.6937 31.7212C30.7278 31.7212 25.8926 26.886 25.8926 20.9233C25.8926 17.6468 27.3532 14.7087 29.6578 12.7306C28.0296 14.6219 27.0494 17.0799 27.0494 19.7665C27.0494 25.7294 31.8846 30.5644 37.8502 30.5644C40.537 30.5644 42.995 29.5842 44.8834 27.956Z" fill="#EBEBEB"/>
<path d="M18.1597 5.64807C18.1597 5.64807 16.1382 5.24368 13.5777 6.59131C11.0172 7.93894 9.26514 6.09115 9.26514 6.09115C9.26514 6.09115 10.2084 6.88178 12.4995 5.59099C14.7906 4.3002 18.1597 5.64807 18.1597 5.64807Z" fill="#FF5A0D"/>
<path d="M13.0128 23.9122C13.0128 23.9122 11.4985 23.5784 9.79557 25.3527C8.09266 27.127 6.60693 25.0685 6.60693 25.0685C6.60693 25.0685 7.38329 25.9356 8.89708 24.2477C10.4109 22.5597 13.0128 23.9122 13.0128 23.9122Z" fill="#FF5A0D"/>
<path d="M12.8041 13.4576C12.8041 13.4576 10.4784 12.8743 7.66849 15.2769C4.8586 17.6795 2.7334 14.6444 2.7334 14.6444C2.7334 14.6444 3.86287 15.9338 6.37069 13.6402C8.8785 11.3467 12.8041 13.4576 12.8041 13.4576Z" fill="#FF5A0D"/>
<path d="M29.6484 16.2008L36.6928 20.9204L46.1593 9.22876" stroke="#121212" stroke-width="3" stroke-miterlimit="10" stroke-linecap="round" stroke-linejoin="round"/>
<path d="M38.1723 20.9222C38.1723 21.7394 37.5098 22.4019 36.6928 22.4019C35.8756 22.4019 35.2134 21.7394 35.2134 20.9222C35.2134 20.105 35.8758 19.4425 36.6928 19.4425C37.5098 19.4427 38.1723 20.1052 38.1723 20.9222Z" fill="#121212"/>
</svg>
