<svg width="1261" height="113" viewBox="0 0 1261 113" fill="none" xmlns="http://www.w3.org/2000/svg">
<path d="M0 0L385.121 17.3477C424.306 19.1128 463.278 24.1221 501.636 32.3243L523.5 36.9995L630.5 100L739 36.9995L753.163 33.7313C795.631 23.9311 838.911 18.0622 882.455 16.1989L1261 0V113H817H630.5H444H0V0Z" fill="white"/>
<path fill-rule="evenodd" clip-rule="evenodd" d="M606.549 71.2168C597.777 62.3573 589.317 51.2974 577.125 48.6897L479.275 27.7592C460.603 23.7651 443 38.0007 443 57.0955V82.9998C443 99.5683 456.431 113 473 113H630H788C804.569 113 818 99.5683 818 82.9998V57.0543C818 37.9728 800.42 23.7401 781.757 27.7111L682.872 48.7505C670.678 51.3448 662.206 62.3939 653.426 71.2429C647.447 77.2684 639.159 80.9998 630 80.9998C620.828 80.9998 612.529 77.2576 606.549 71.2168Z" fill="white"/>
</svg>
